####
#
# OBJ File Generated by Meshlab
#
####
# Object left_triangle.obj
#
# Vertices: 11
# Faces: 12
#
####
mtllib ./left_triangle.obj.mtl

vn -0.577350 0.577350 0.577350
v -10.000000 1.000000 5.000000
vn -0.577350 -0.577350 0.577350
v -10.000000 0.000000 5.000000
vn 0.773459 0.546918 0.320377
v 1.934315 1.000000 5.000000
vn 0.773459 -0.546918 0.320377
v 1.934315 0.000000 5.000000
vn 0.000000 -0.707107 -0.707107
v -10.000000 0.000000 0.000000
vn 0.000000 0.707107 -0.707107
v -10.000000 1.000000 0.000000
vn 0.382683 0.000000 -0.923880
v -3.065686 0.000000 0.000000
vn 0.297109 0.630262 -0.717284
v -3.065686 1.000000 0.000000
vn 0.000000 -1.000000 0.000000
v -3.065686 0.000000 0.000000
vn -1.000000 0.000000 0.000000
v -10.000000 1.000000 0.000000
vn -1.000000 0.000000 0.000000
v -10.000000 0.000000 0.000000
# 11 vertices, 0 vertices normals


usemtl material_0
vt 0.000977 0.250977
vt 0.247642 0.250977
vt 0.000977 0.497642
f 1/1/1 2/2/2 3/3/3
vt 0.000977 0.002358
vt 0.247642 0.249023
vt 0.000977 0.249023
f 3/4/3 2/5/2 4/6/4
vt 0.373619 0.375000
vt 0.250977 0.497642
vt 0.250977 0.252358
f 5/7/5 6/8/6 7/9/7
vt 0.497642 0.499023
vt 0.252358 0.499023
vt 0.375000 0.376381
f 7/10/7 6/11/6 8/12/8
vt 0.000977 0.999023
vt 0.000977 0.502358
vt 0.497642 0.999023
f 6/13/6 1/14/1 8/15/8
vt 0.499023 0.500977
vt 0.499023 0.997642
vt 0.002358 0.500977
f 8/16/8 1/17/1 3/18/3
vt 0.500977 0.502358
vt 0.997642 0.999023
vt 0.500977 0.999023
f 4/19/4 2/20/2 9/21/9
vt 0.999023 0.997642
vt 0.502358 0.500977
vt 0.999023 0.500977
f 9/22/9 2/23/2 5/24/5
vt 0.125000 0.376381
vt 0.247642 0.499023
vt 0.002358 0.499023
f 1/25/1 10/26/10 2/27/2
vt 0.249023 0.252358
vt 0.249023 0.497642
vt 0.126381 0.375000
f 2/28/2 10/29/10 11/30/11
vt 0.375000 0.126381
vt 0.497642 0.249023
vt 0.252358 0.249023
f 7/31/7 8/32/8 4/33/4
vt 0.499023 0.002358
vt 0.499023 0.247642
vt 0.376381 0.125000
f 4/34/4 8/35/8 3/36/3
# 12 faces, 36 coords texture

# End of File
