####
#
# OBJ File Generated by Meshlab
#
####
# Object right_triangle.obj
#
# Vertices: 10
# Faces: 12
#
####
mtllib ./right_triangle.obj.mtl

vn 0.577350 0.577350 -0.577350
v 10.000000 1.000000 0.000000
vn 0.577350 0.577350 0.577350
v 10.000000 1.000000 5.000000
vn 0.577350 -0.577350 -0.577350
v 10.000000 0.000000 0.000000
vn 0.577350 -0.577350 0.577350
v 10.000000 0.000000 5.000000
vn 0.000000 -0.447214 -0.894427
v -1.934315 0.000000 0.000000
vn -0.297109 -0.630262 0.717284
v 3.065686 0.000000 5.000000
vn -0.297109 0.630262 0.717284
v 3.065686 1.000000 5.000000
vn 0.000000 0.447214 -0.894427
v -1.934315 1.000000 0.000000
vn -0.707107 0.000000 0.707107
v -1.934315 1.000000 -0.000000
vn -0.707107 0.000000 0.707107
v -1.934315 0.000000 -0.000000
# 10 vertices, 0 vertices normals


usemtl material_0
vt 0.373619 0.375000
vt 0.250977 0.497642
vt 0.250977 0.252358
f 1/1/1 2/2/2 3/3/3
vt 0.497642 0.499023
vt 0.252358 0.499023
vt 0.375000 0.376381
f 3/4/3 2/5/2 4/6/4
vt 0.000977 0.502358
vt 0.497642 0.999023
vt 0.000977 0.999023
f 5/7/5 3/8/3 6/9/6
vt 0.499023 0.997642
vt 0.002358 0.500977
vt 0.499023 0.500977
f 6/10/6 3/11/3 4/12/4
vt 0.500977 0.999023
vt 0.500977 0.502358
vt 0.997642 0.999023
f 2/13/2 1/14/1 7/15/7
vt 0.999023 0.500977
vt 0.999023 0.997642
vt 0.502358 0.500977
f 7/16/7 1/17/1 8/18/8
vt 0.000977 0.250977
vt 0.247642 0.250977
vt 0.000977 0.497642
f 1/19/1 3/20/3 8/21/8
vt 0.000977 0.002358
vt 0.247642 0.249023
vt 0.000977 0.249023
f 8/22/8 3/23/3 5/24/5
vt 0.125000 0.376381
vt 0.247642 0.499023
vt 0.002358 0.499023
f 4/25/4 2/26/2 6/27/6
vt 0.249023 0.252358
vt 0.249023 0.497642
vt 0.126381 0.375000
f 6/28/6 2/29/2 7/30/7
vt 0.375000 0.126381
vt 0.497642 0.249023
vt 0.252358 0.249023
f 9/31/9 10/32/10 7/33/7
vt 0.499023 0.002358
vt 0.499023 0.247642
vt 0.376381 0.125000
f 7/34/7 10/35/10 6/36/6
# 12 faces, 36 coords texture

# End of File
